<?xml version="1.0" encoding="utf-8"?>
<!-- Generator: Adobe Illustrator 16.0.0, SVG Export Plug-In . SVG Version: 6.00 Build 0)  -->
<!DOCTYPE svg PUBLIC "-//W3C//DTD SVG 1.1//EN" "http://www.w3.org/Graphics/SVG/1.1/DTD/svg11.dtd">
<svg version="1.1" id="Layer_1" xmlns="http://www.w3.org/2000/svg" xmlns:xlink="http://www.w3.org/1999/xlink" x="0px" y="0px"
	 width="288px" height="100px" viewBox="0 0 288 100" enable-background="new 0 0 288 100" xml:space="preserve">
<g>
	<path fill="#30C1DC" d="M32.833,67.904c1.085-1.801,1.873-3.783,2.366-5.951c0.491-2.174,0.74-4.291,0.74-6.361V34.956
		c0-0.838-0.396-1.256-1.184-1.256c-0.346,0-0.642,0.111-0.888,0.334c-0.247,0.22-0.37,0.528-0.37,0.922v20.636
		c0,1.824-0.221,3.721-0.665,5.693s-1.147,3.771-2.109,5.398c-0.962,1.625-2.205,2.98-3.734,4.066
		c-1.529,1.084-3.379,1.627-5.547,1.627c-0.345,0-0.628,0.125-0.85,0.369c-0.222,0.246-0.333,0.543-0.333,0.889v5.174
		c-2.416-0.193-4.684-0.945-6.804-2.252s-3.957-3.01-5.508-5.104c-1.554-2.096-2.788-4.512-3.698-7.248
		c-0.912-2.736-1.368-5.656-1.368-8.764V30.671c0-0.347-0.112-0.644-0.333-0.889c-0.221-0.247-0.505-0.368-0.852-0.368
		c-0.395,0-0.703,0.121-0.923,0.368c-0.222,0.245-0.333,0.542-0.333,0.889v24.771c0,2.961,0.469,5.979,1.405,9.059
		c0.937,3.082,2.304,5.867,4.104,8.359c1.801,2.488,3.995,4.521,6.583,6.102c2.588,1.578,5.558,2.365,8.911,2.365
		c0.346,0,0.641-0.121,0.888-0.369c0.246-0.246,0.369-0.543,0.369-0.891v-5.322c2.316-0.244,4.315-0.996,5.99-2.252
		C30.367,71.232,31.748,69.703,32.833,67.904z"/>
	<path fill="#30C1DC" d="M15.454,72.822c0.148,0.098,0.37,0.146,0.665,0.146c0.493,0,0.839-0.172,1.037-0.516
		c0.196-0.301,0.245-0.605,0.147-0.926c-0.099-0.318-0.296-0.578-0.592-0.777c-1.232-0.787-2.316-1.752-3.254-2.885
		c-0.936-1.133-1.701-2.379-2.292-3.732c-0.592-1.357-1.037-2.762-1.331-4.215c-0.296-1.455-0.445-2.898-0.445-4.328V36.585
		c0-0.348-0.112-0.642-0.333-0.889c-0.221-0.243-0.506-0.367-0.85-0.367c-0.396,0-0.704,0.124-0.925,0.367
		c-0.222,0.247-0.333,0.541-0.333,0.889v19.007c0,3.695,0.753,7.088,2.257,10.17C10.709,68.842,12.792,71.195,15.454,72.822z"/>
	<path fill="#30C1DC" d="M41.264,29.484c-0.347,0-0.63,0.123-0.853,0.37c-0.221,0.246-0.333,0.543-0.333,0.888v25.291
		c0,2.221-0.282,4.486-0.85,6.809c-0.568,2.314-1.406,4.494-2.516,6.541c-1.107,2.045-2.487,3.871-4.139,5.473
		c-1.652,1.604-3.587,2.822-5.807,3.662c-0.296,0.1-0.517,0.295-0.665,0.59c-0.146,0.297-0.146,0.617,0,0.959
		c0.198,0.594,0.716,0.814,1.554,0.67c2.465-0.838,4.622-2.143,6.471-3.924c1.848-1.773,3.39-3.795,4.623-6.061
		c1.23-2.268,2.168-4.686,2.809-7.248c0.64-2.564,0.962-5.053,0.962-7.471V30.742c0-0.345-0.125-0.642-0.371-0.888
		C41.904,29.607,41.609,29.484,41.264,29.484z"/>
	<path fill="#30C1DC" d="M17.666,39.159c0.346,0,0.64-0.109,0.887-0.332c0.246-0.223,0.37-0.507,0.37-0.853V26.439
		c0-0.346-0.124-0.642-0.37-0.888c-0.248-0.247-0.542-0.371-0.887-0.371H3.983c-0.394,0-0.702,0.124-0.922,0.371
		c-0.223,0.246-0.334,0.542-0.334,0.888c0,0.787,0.419,1.185,1.257,1.185h12.5v10.352C16.482,38.765,16.877,39.159,17.666,39.159z"
		/>
	<path fill="#30C1DC" d="M8.051,21.113h9.615c0.346,0,0.64-0.109,0.887-0.331c0.246-0.222,0.37-0.507,0.37-0.851
		c0-0.394-0.124-0.704-0.37-0.926c-0.248-0.219-0.542-0.332-0.887-0.332H8.051c-0.789,0-1.184,0.419-1.184,1.258
		C6.867,20.722,7.262,21.113,8.051,21.113z"/>
	<path fill="#30C1DC" d="M16.816,43.67c-0.222,0.249-0.334,0.544-0.334,0.889v18.859c0,0.836,0.395,1.254,1.184,1.254
		c0.346,0,0.64-0.109,0.887-0.332c0.246-0.223,0.37-0.529,0.37-0.922V45.742h5.472c0.346,0,0.642-0.11,0.887-0.333
		c0.248-0.224,0.37-0.507,0.37-0.852V21.113h13.46c0.838,0,1.255-0.393,1.255-1.182c0-0.839-0.417-1.258-1.255-1.258H24.395
		c-0.787,0-1.183,0.419-1.183,1.258v23.369h-5.546C17.321,43.301,17.036,43.424,16.816,43.67z"/>
	<path fill="#30C1DC" d="M24.319,50.032c-0.786,0-1.182,0.417-1.182,1.257v17.82c0,0.791,0.396,1.186,1.182,1.186
		c0.347,0,0.643-0.111,0.889-0.336c0.249-0.223,0.371-0.504,0.371-0.85v-17.82c0-0.396-0.122-0.703-0.371-0.924
		C24.962,50.142,24.666,50.032,24.319,50.032z"/>
	<path fill="#30C1DC" d="M40.367,26.439c0-0.346-0.109-0.642-0.332-0.888c-0.22-0.247-0.529-0.371-0.923-0.371h-9.023
		c-0.345,0-0.628,0.124-0.85,0.371c-0.221,0.246-0.333,0.542-0.333,0.888c0,0.787,0.394,1.185,1.183,1.185h9.023
		C39.95,27.624,40.367,27.228,40.367,26.439z"/>
	<circle fill="#30C1DC" cx="3.789" cy="19.898" r="1.186"/>
	<circle fill="#30C1DC" cx="34.711" cy="30.663" r="1.186"/>
	<circle fill="#30C1DC" cx="8.14" cy="30.663" r="1.186"/>
</g>
<g>
	<path fill="#30C1DC" d="M61.845,68.534c0.303,0,0.559-0.063,0.768-0.188s0.378-0.293,0.508-0.502
		c0.13-0.208,0.222-0.447,0.276-0.717s0.081-0.545,0.081-0.825v-3.916h1.774v3.916c0,0.532-0.067,1.028-0.2,1.488
		c-0.134,0.461-0.339,0.863-0.617,1.208c-0.278,0.346-0.631,0.617-1.06,0.814c-0.429,0.198-0.939,0.297-1.531,0.297
		c-0.613,0-1.136-0.104-1.568-0.313s-0.784-0.487-1.055-0.836s-0.469-0.754-0.595-1.214c-0.126-0.46-0.189-0.942-0.189-1.445v-3.916
		h1.774v3.916c0,0.295,0.029,0.575,0.086,0.841c0.058,0.267,0.151,0.504,0.281,0.712c0.13,0.209,0.297,0.375,0.503,0.497
		S61.542,68.534,61.845,68.534z"/>
	<path fill="#30C1DC" d="M71.958,70.045h-1.73v-3.183c0-0.374-0.07-0.646-0.211-0.814s-0.327-0.253-0.557-0.253
		c-0.123,0-0.246,0.024-0.368,0.075c-0.123,0.05-0.242,0.12-0.357,0.21s-0.218,0.196-0.308,0.318
		c-0.09,0.122-0.161,0.256-0.211,0.399v3.247h-1.731v-5.664h1.558v0.95c0.209-0.339,0.504-0.6,0.887-0.782
		c0.382-0.184,0.822-0.275,1.32-0.275c0.368,0,0.663,0.066,0.887,0.199c0.224,0.134,0.396,0.306,0.52,0.519
		c0.123,0.212,0.204,0.443,0.243,0.695s0.06,0.496,0.06,0.733V70.045z"/>
	<path fill="#30C1DC" d="M73.083,62.17h1.731v5.857c0,0.432,0.184,0.647,0.551,0.647c0.087,0,0.182-0.013,0.287-0.038
		c0.104-0.024,0.2-0.063,0.287-0.113l0.227,1.295c-0.216,0.101-0.465,0.18-0.747,0.237s-0.544,0.086-0.79,0.086
		c-0.498,0-0.88-0.129-1.146-0.388c-0.267-0.259-0.4-0.633-0.4-1.122V62.17z"/>
	<path fill="#30C1DC" d="M79.444,70.152c-0.476,0-0.903-0.077-1.282-0.231c-0.379-0.154-0.7-0.365-0.963-0.631
		c-0.263-0.267-0.463-0.573-0.6-0.923c-0.137-0.349-0.206-0.714-0.206-1.095c0-0.41,0.068-0.797,0.206-1.16
		c0.137-0.362,0.335-0.681,0.595-0.954s0.579-0.489,0.958-0.647c0.378-0.158,0.809-0.237,1.292-0.237
		c0.483,0,0.912,0.079,1.287,0.237s0.692,0.372,0.952,0.642c0.259,0.27,0.456,0.581,0.589,0.934s0.2,0.723,0.2,1.111
		c0,0.101-0.004,0.199-0.011,0.296c-0.007,0.098-0.018,0.182-0.033,0.254h-4.197c0.029,0.381,0.167,0.671,0.417,0.868
		c0.249,0.198,0.532,0.297,0.849,0.297c0.252,0,0.496-0.061,0.73-0.184c0.234-0.122,0.391-0.287,0.471-0.496l1.471,0.41
		c-0.224,0.446-0.57,0.809-1.039,1.09C80.663,70.013,80.1,70.152,79.444,70.152z M80.645,66.679
		c-0.036-0.359-0.166-0.644-0.39-0.852c-0.224-0.209-0.501-0.313-0.833-0.313c-0.339,0-0.619,0.106-0.838,0.318
		c-0.22,0.213-0.348,0.495-0.384,0.847H80.645z"/>
	<path fill="#30C1DC" d="M84.874,70.152c-0.281,0-0.542-0.045-0.784-0.135s-0.449-0.216-0.622-0.377
		c-0.173-0.162-0.31-0.353-0.411-0.572c-0.101-0.219-0.152-0.458-0.152-0.717c0-0.281,0.06-0.536,0.179-0.767
		c0.119-0.229,0.287-0.428,0.503-0.593c0.216-0.166,0.472-0.295,0.768-0.389c0.295-0.094,0.624-0.141,0.984-0.141
		c0.238,0,0.469,0.021,0.692,0.06c0.223,0.04,0.418,0.1,0.584,0.178v-0.259c0-0.654-0.378-0.981-1.136-0.981
		c-0.31,0-0.606,0.053-0.887,0.156c-0.281,0.104-0.577,0.261-0.887,0.47l-0.508-1.079c0.375-0.244,0.764-0.428,1.168-0.55
		s0.833-0.184,1.287-0.184c0.858,0,1.521,0.201,1.991,0.604c0.468,0.402,0.703,0.992,0.703,1.769v1.457
		c0,0.172,0.027,0.293,0.081,0.361c0.054,0.068,0.149,0.109,0.287,0.124v1.456c-0.151,0.036-0.289,0.06-0.411,0.07
		s-0.234,0.016-0.335,0.016c-0.324,0-0.57-0.063-0.735-0.188c-0.166-0.126-0.271-0.304-0.314-0.534l-0.032-0.259
		c-0.252,0.324-0.554,0.572-0.903,0.744C85.633,70.066,85.264,70.152,84.874,70.152z M85.382,68.912c0.188,0,0.37-0.032,0.546-0.097
		c0.177-0.065,0.323-0.151,0.438-0.259c0.166-0.13,0.249-0.267,0.249-0.41v-0.54c-0.151-0.057-0.315-0.103-0.492-0.135
		s-0.341-0.048-0.492-0.048c-0.317,0-0.579,0.071-0.784,0.216c-0.206,0.144-0.308,0.33-0.308,0.561c0,0.209,0.079,0.38,0.238,0.513
		S85.137,68.912,85.382,68.912z"/>
	<path fill="#30C1DC" d="M91.84,70.152c-0.483,0-0.959-0.077-1.428-0.231s-0.865-0.379-1.19-0.674l0.617-1.058
		c0.346,0.237,0.683,0.421,1.011,0.55c0.328,0.13,0.644,0.194,0.947,0.194c0.223,0,0.396-0.039,0.519-0.118S92.5,68.621,92.5,68.47
		c0-0.15-0.078-0.271-0.233-0.361s-0.427-0.185-0.816-0.286c-0.382-0.107-0.705-0.212-0.968-0.313s-0.478-0.212-0.644-0.334
		c-0.166-0.123-0.285-0.263-0.357-0.421c-0.072-0.158-0.108-0.346-0.108-0.562c0-0.287,0.058-0.55,0.173-0.787
		c0.115-0.237,0.274-0.438,0.476-0.604c0.202-0.165,0.442-0.295,0.72-0.388c0.277-0.094,0.579-0.141,0.903-0.141
		c0.426,0,0.824,0.058,1.195,0.173c0.372,0.115,0.73,0.323,1.077,0.625l-0.671,1.036c-0.324-0.223-0.613-0.385-0.865-0.485
		s-0.498-0.151-0.736-0.151c-0.188,0-0.346,0.038-0.476,0.113s-0.195,0.196-0.195,0.361c0,0.158,0.07,0.277,0.211,0.356
		s0.402,0.165,0.784,0.259c0.404,0.107,0.745,0.216,1.022,0.323c0.277,0.108,0.503,0.229,0.676,0.361
		c0.173,0.134,0.299,0.286,0.378,0.459c0.08,0.173,0.119,0.377,0.119,0.615c0,0.561-0.209,1.007-0.627,1.337
		C93.121,69.987,92.554,70.152,91.84,70.152z"/>
	<path fill="#30C1DC" d="M100.472,70.045h-1.73v-3.183c0-0.366-0.072-0.637-0.217-0.809c-0.144-0.173-0.342-0.259-0.595-0.259
		c-0.101,0-0.211,0.023-0.33,0.069c-0.119,0.047-0.234,0.115-0.346,0.205s-0.214,0.196-0.308,0.318s-0.166,0.259-0.216,0.41v3.247
		h-1.731V62.17h1.731v3.161c0.209-0.339,0.485-0.6,0.828-0.782c0.342-0.184,0.719-0.275,1.13-0.275c0.382,0,0.69,0.066,0.925,0.199
		c0.234,0.134,0.415,0.303,0.541,0.508c0.126,0.204,0.211,0.435,0.254,0.689c0.043,0.256,0.065,0.506,0.065,0.75V70.045z"/>
	<path fill="#30C1DC" d="M101.619,63.734V62.17h1.731v1.564H101.619z M101.619,70.045v-5.664h1.731v5.664H101.619z"/>
	<path fill="#30C1DC" d="M110.013,70.045h-1.73v-3.183c0-0.374-0.07-0.646-0.211-0.814s-0.327-0.253-0.557-0.253
		c-0.123,0-0.246,0.024-0.368,0.075c-0.123,0.05-0.242,0.12-0.357,0.21s-0.218,0.196-0.308,0.318
		c-0.09,0.122-0.161,0.256-0.211,0.399v3.247h-1.731v-5.664h1.558v0.95c0.209-0.339,0.504-0.6,0.887-0.782
		c0.382-0.184,0.822-0.275,1.32-0.275c0.368,0,0.663,0.066,0.887,0.199c0.224,0.134,0.396,0.306,0.52,0.519
		c0.123,0.212,0.204,0.443,0.243,0.695s0.06,0.496,0.06,0.733V70.045z"/>
	<path fill="#30C1DC" d="M113.366,70.066c-0.375,0-0.718-0.075-1.028-0.227s-0.575-0.355-0.795-0.615
		c-0.22-0.259-0.391-0.561-0.514-0.905c-0.123-0.346-0.184-0.716-0.184-1.111c0-0.417,0.065-0.804,0.195-1.16
		c0.13-0.355,0.31-0.665,0.541-0.928c0.231-0.263,0.509-0.469,0.833-0.62c0.325-0.151,0.682-0.227,1.071-0.227
		c0.433,0,0.81,0.092,1.13,0.275c0.321,0.183,0.579,0.437,0.773,0.76v-0.928h1.504v5.275c0,0.432-0.081,0.82-0.244,1.165
		c-0.162,0.346-0.388,0.639-0.676,0.88c-0.289,0.24-0.635,0.426-1.039,0.556c-0.404,0.129-0.848,0.193-1.331,0.193
		c-0.613,0-1.136-0.097-1.568-0.291s-0.812-0.475-1.136-0.841l0.93-0.939c0.209,0.237,0.469,0.427,0.779,0.566
		c0.31,0.141,0.642,0.211,0.995,0.211c0.209,0,0.407-0.029,0.595-0.087c0.187-0.058,0.353-0.146,0.498-0.264
		c0.144-0.119,0.257-0.273,0.34-0.464s0.125-0.419,0.125-0.686v-0.55c-0.173,0.316-0.422,0.556-0.746,0.718
		C114.091,69.985,113.741,70.066,113.366,70.066z M113.961,68.696c0.267,0,0.505-0.073,0.714-0.221s0.372-0.336,0.487-0.566v-1.187
		c-0.115-0.303-0.292-0.542-0.53-0.718c-0.238-0.176-0.491-0.265-0.757-0.265c-0.188,0-0.359,0.042-0.514,0.124
		c-0.155,0.083-0.289,0.194-0.4,0.335c-0.112,0.14-0.198,0.302-0.26,0.485c-0.061,0.184-0.092,0.372-0.092,0.566
		c0,0.209,0.034,0.4,0.103,0.577c0.069,0.176,0.164,0.329,0.287,0.458c0.122,0.13,0.265,0.23,0.427,0.303
		C113.588,68.66,113.766,68.696,113.961,68.696z"/>
	<path fill="#30C1DC" d="M120.743,70.045v-7.659h1.774v7.659H120.743z"/>
	<path fill="#30C1DC" d="M129.321,70.045h-1.73v-3.183c0-0.374-0.07-0.646-0.211-0.814s-0.327-0.253-0.557-0.253
		c-0.123,0-0.246,0.024-0.368,0.075c-0.123,0.05-0.242,0.12-0.357,0.21s-0.218,0.196-0.308,0.318
		c-0.09,0.122-0.161,0.256-0.211,0.399v3.247h-1.731v-5.664h1.558v0.95c0.209-0.339,0.504-0.6,0.887-0.782
		c0.382-0.184,0.822-0.275,1.32-0.275c0.368,0,0.663,0.066,0.887,0.199c0.224,0.134,0.396,0.306,0.52,0.519
		c0.123,0.212,0.204,0.443,0.243,0.695s0.06,0.496,0.06,0.733V70.045z"/>
	<path fill="#30C1DC" d="M135.941,70.045h-1.73v-3.183c0-0.374-0.07-0.646-0.211-0.814s-0.327-0.253-0.557-0.253
		c-0.123,0-0.246,0.024-0.368,0.075c-0.123,0.05-0.242,0.12-0.357,0.21s-0.218,0.196-0.308,0.318
		c-0.09,0.122-0.161,0.256-0.211,0.399v3.247h-1.731v-5.664h1.558v0.95c0.209-0.339,0.504-0.6,0.887-0.782
		c0.382-0.184,0.822-0.275,1.32-0.275c0.368,0,0.663,0.066,0.887,0.199c0.224,0.134,0.396,0.306,0.52,0.519
		c0.123,0.212,0.204,0.443,0.243,0.695s0.06,0.496,0.06,0.733V70.045z"/>
	<path fill="#30C1DC" d="M139.792,70.152c-0.483,0-0.914-0.079-1.293-0.237c-0.378-0.157-0.697-0.372-0.957-0.642
		s-0.456-0.582-0.589-0.938c-0.134-0.355-0.2-0.729-0.2-1.116c0-0.389,0.066-0.761,0.2-1.117c0.133-0.355,0.33-0.669,0.589-0.938
		s0.579-0.485,0.957-0.647c0.379-0.161,0.81-0.242,1.293-0.242c0.483,0,0.912,0.081,1.287,0.242
		c0.375,0.162,0.692,0.378,0.952,0.647c0.259,0.27,0.458,0.583,0.595,0.938c0.137,0.356,0.206,0.729,0.206,1.117
		c0,0.388-0.067,0.761-0.2,1.116c-0.133,0.356-0.33,0.669-0.589,0.938c-0.26,0.27-0.579,0.484-0.958,0.642
		C140.706,70.073,140.275,70.152,139.792,70.152z M138.526,67.219c0,0.445,0.119,0.804,0.357,1.073s0.541,0.404,0.909,0.404
		c0.18,0,0.346-0.036,0.498-0.107c0.151-0.072,0.283-0.173,0.395-0.303c0.112-0.129,0.2-0.285,0.265-0.469s0.098-0.383,0.098-0.599
		c0-0.446-0.119-0.804-0.357-1.073c-0.238-0.271-0.538-0.405-0.898-0.405c-0.181,0-0.348,0.036-0.503,0.108
		c-0.155,0.071-0.289,0.173-0.4,0.302c-0.112,0.13-0.2,0.286-0.265,0.47C138.559,66.803,138.526,67.003,138.526,67.219z"/>
	<path fill="#30C1DC" d="M144.952,70.045l-2.013-5.664h1.784l1.244,4.283l1.256-4.283h1.611l-2.002,5.664H144.952z"/>
	<path fill="#30C1DC" d="M150.966,70.152c-0.281,0-0.543-0.045-0.784-0.135c-0.242-0.09-0.449-0.216-0.622-0.377
		c-0.174-0.162-0.311-0.353-0.411-0.572c-0.102-0.219-0.151-0.458-0.151-0.717c0-0.281,0.06-0.536,0.178-0.767
		c0.119-0.229,0.287-0.428,0.504-0.593c0.216-0.166,0.472-0.295,0.768-0.389s0.624-0.141,0.984-0.141
		c0.238,0,0.469,0.021,0.692,0.06c0.224,0.04,0.418,0.1,0.584,0.178v-0.259c0-0.654-0.379-0.981-1.136-0.981
		c-0.311,0-0.605,0.053-0.887,0.156c-0.281,0.104-0.577,0.261-0.888,0.47l-0.508-1.079c0.375-0.244,0.764-0.428,1.168-0.55
		s0.833-0.184,1.287-0.184c0.858,0,1.521,0.201,1.99,0.604c0.469,0.402,0.703,0.992,0.703,1.769v1.457
		c0,0.172,0.027,0.293,0.081,0.361c0.055,0.068,0.15,0.109,0.287,0.124v1.456c-0.151,0.036-0.289,0.06-0.411,0.07
		c-0.123,0.011-0.234,0.016-0.335,0.016c-0.325,0-0.57-0.063-0.736-0.188s-0.271-0.304-0.313-0.534l-0.032-0.259
		c-0.253,0.324-0.554,0.572-0.903,0.744C151.725,70.066,151.354,70.152,150.966,70.152z M151.474,68.912
		c0.188,0,0.37-0.032,0.547-0.097c0.176-0.065,0.322-0.151,0.438-0.259c0.166-0.13,0.249-0.267,0.249-0.41v-0.54
		c-0.151-0.057-0.315-0.103-0.492-0.135s-0.341-0.048-0.492-0.048c-0.317,0-0.579,0.071-0.784,0.216
		c-0.206,0.144-0.309,0.33-0.309,0.561c0,0.209,0.079,0.38,0.238,0.513C151.026,68.846,151.229,68.912,151.474,68.912z"/>
	<path fill="#30C1DC" d="M159.327,69.743c-0.237,0.101-0.51,0.194-0.816,0.28s-0.615,0.129-0.925,0.129
		c-0.217,0-0.42-0.026-0.611-0.08c-0.191-0.055-0.358-0.141-0.503-0.26c-0.145-0.118-0.258-0.274-0.341-0.469
		s-0.124-0.428-0.124-0.701v-2.956h-0.725v-1.306h0.725V62.58h1.73v1.801h1.157v1.306h-1.157v2.362c0,0.188,0.047,0.322,0.141,0.405
		c0.094,0.082,0.213,0.124,0.357,0.124c0.129,0,0.263-0.021,0.399-0.065c0.138-0.043,0.256-0.09,0.357-0.14L159.327,69.743z"/>
	<path fill="#30C1DC" d="M159.998,63.734V62.17h1.73v1.564H159.998z M159.998,70.045v-5.664h1.73v5.664H159.998z"/>
	<path fill="#30C1DC" d="M165.622,70.152c-0.482,0-0.914-0.079-1.292-0.237c-0.379-0.157-0.698-0.372-0.958-0.642
		c-0.259-0.27-0.456-0.582-0.589-0.938c-0.134-0.355-0.2-0.729-0.2-1.116c0-0.389,0.066-0.761,0.2-1.117
		c0.133-0.355,0.33-0.669,0.589-0.938c0.26-0.27,0.579-0.485,0.958-0.647c0.378-0.161,0.81-0.242,1.292-0.242
		c0.483,0,0.912,0.081,1.288,0.242c0.374,0.162,0.691,0.378,0.951,0.647s0.458,0.583,0.595,0.938
		c0.138,0.356,0.206,0.729,0.206,1.117c0,0.388-0.066,0.761-0.2,1.116c-0.134,0.356-0.33,0.669-0.59,0.938s-0.578,0.484-0.957,0.642
		C166.536,70.073,166.105,70.152,165.622,70.152z M164.356,67.219c0,0.445,0.119,0.804,0.357,1.073s0.541,0.404,0.908,0.404
		c0.181,0,0.347-0.036,0.498-0.107c0.151-0.072,0.283-0.173,0.395-0.303c0.112-0.129,0.2-0.285,0.266-0.469
		c0.064-0.184,0.097-0.383,0.097-0.599c0-0.446-0.119-0.804-0.356-1.073c-0.238-0.271-0.537-0.405-0.898-0.405
		c-0.18,0-0.348,0.036-0.503,0.108c-0.155,0.071-0.288,0.173-0.4,0.302c-0.111,0.13-0.199,0.286-0.265,0.47
		C164.39,66.803,164.356,67.003,164.356,67.219z"/>
	<path fill="#30C1DC" d="M174.99,70.045h-1.73v-3.183c0-0.374-0.07-0.646-0.211-0.814s-0.326-0.253-0.558-0.253
		c-0.122,0-0.245,0.024-0.367,0.075c-0.123,0.05-0.242,0.12-0.357,0.21s-0.218,0.196-0.309,0.318
		c-0.09,0.122-0.16,0.256-0.211,0.399v3.247h-1.73v-5.664h1.558v0.95c0.209-0.339,0.505-0.6,0.888-0.782
		c0.382-0.184,0.821-0.275,1.319-0.275c0.368,0,0.663,0.066,0.887,0.199c0.224,0.134,0.396,0.306,0.52,0.519
		c0.122,0.212,0.203,0.443,0.243,0.695s0.06,0.496,0.06,0.733V70.045z"/>
	<path fill="#30C1DC" d="M184.347,63.938h-2.337v6.106h-1.773v-6.106h-2.348v-1.553h6.458V63.938z"/>
	<path fill="#30C1DC" d="M190.545,70.045h-1.73v-3.183c0-0.366-0.072-0.637-0.217-0.809c-0.145-0.173-0.343-0.259-0.595-0.259
		c-0.101,0-0.211,0.023-0.33,0.069c-0.119,0.047-0.234,0.115-0.346,0.205c-0.112,0.09-0.215,0.196-0.309,0.318
		s-0.166,0.259-0.217,0.41v3.247h-1.73V62.17h1.73v3.161c0.21-0.339,0.485-0.6,0.828-0.782c0.342-0.184,0.719-0.275,1.13-0.275
		c0.383,0,0.69,0.066,0.925,0.199c0.234,0.134,0.415,0.303,0.541,0.508c0.126,0.204,0.211,0.435,0.255,0.689
		c0.043,0.256,0.064,0.506,0.064,0.75V70.045z"/>
	<path fill="#30C1DC" d="M195.294,65.859c-0.419,0.007-0.797,0.075-1.136,0.205c-0.339,0.129-0.584,0.323-0.736,0.582v3.398h-1.73
		v-5.664h1.59v1.144c0.195-0.381,0.445-0.68,0.752-0.896c0.307-0.215,0.633-0.327,0.979-0.334c0.079,0,0.137,0,0.173,0
		s0.072,0.004,0.108,0.011V65.859z"/>
	<path fill="#30C1DC" d="M198.441,70.152c-0.482,0-0.914-0.079-1.292-0.237c-0.379-0.157-0.698-0.372-0.958-0.642
		c-0.259-0.27-0.456-0.582-0.589-0.938c-0.134-0.355-0.2-0.729-0.2-1.116c0-0.389,0.066-0.761,0.2-1.117
		c0.133-0.355,0.33-0.669,0.589-0.938c0.26-0.27,0.579-0.485,0.958-0.647c0.378-0.161,0.81-0.242,1.292-0.242
		c0.483,0,0.912,0.081,1.288,0.242c0.374,0.162,0.691,0.378,0.951,0.647s0.458,0.583,0.595,0.938
		c0.138,0.356,0.206,0.729,0.206,1.117c0,0.388-0.066,0.761-0.2,1.116c-0.134,0.356-0.33,0.669-0.59,0.938s-0.578,0.484-0.957,0.642
		C199.355,70.073,198.925,70.152,198.441,70.152z M197.176,67.219c0,0.445,0.119,0.804,0.357,1.073s0.541,0.404,0.908,0.404
		c0.181,0,0.347-0.036,0.498-0.107c0.151-0.072,0.283-0.173,0.395-0.303c0.112-0.129,0.2-0.285,0.266-0.469
		c0.064-0.184,0.097-0.383,0.097-0.599c0-0.446-0.119-0.804-0.356-1.073c-0.238-0.271-0.537-0.405-0.898-0.405
		c-0.18,0-0.348,0.036-0.503,0.108c-0.155,0.071-0.288,0.173-0.4,0.302c-0.111,0.13-0.199,0.286-0.265,0.47
		C197.209,66.803,197.176,67.003,197.176,67.219z"/>
	<path fill="#30C1DC" d="M204.055,70.152c-0.584,0-1.025-0.181-1.324-0.544c-0.3-0.363-0.449-0.897-0.449-1.603v-3.625h1.73v3.248
		c0,0.345,0.068,0.609,0.206,0.792c0.137,0.184,0.331,0.275,0.584,0.275c0.23,0,0.454-0.061,0.67-0.184
		c0.217-0.122,0.408-0.334,0.574-0.636v-3.496h1.73v3.723c0,0.172,0.026,0.293,0.081,0.361c0.054,0.068,0.149,0.109,0.286,0.124
		v1.456c-0.166,0.036-0.307,0.06-0.422,0.07s-0.22,0.016-0.313,0.016c-0.62,0-0.974-0.24-1.06-0.723l-0.033-0.345
		c-0.259,0.374-0.582,0.648-0.968,0.825C204.962,70.064,204.531,70.152,204.055,70.152z"/>
	<path fill="#30C1DC" d="M211.324,70.066c-0.375,0-0.718-0.075-1.027-0.227c-0.311-0.151-0.575-0.355-0.796-0.615
		c-0.22-0.259-0.391-0.561-0.514-0.905c-0.122-0.346-0.184-0.716-0.184-1.111c0-0.417,0.064-0.804,0.194-1.16
		c0.13-0.355,0.311-0.665,0.541-0.928s0.509-0.469,0.833-0.62s0.682-0.227,1.071-0.227c0.433,0,0.81,0.092,1.13,0.275
		c0.321,0.183,0.579,0.437,0.773,0.76v-0.928h1.504v5.275c0,0.432-0.081,0.82-0.243,1.165c-0.163,0.346-0.388,0.639-0.677,0.88
		c-0.288,0.24-0.635,0.426-1.038,0.556c-0.404,0.129-0.848,0.193-1.33,0.193c-0.613,0-1.137-0.097-1.569-0.291
		s-0.811-0.475-1.136-0.841l0.931-0.939c0.209,0.237,0.469,0.427,0.778,0.566c0.311,0.141,0.643,0.211,0.996,0.211
		c0.209,0,0.407-0.029,0.595-0.087s0.353-0.146,0.497-0.264c0.145-0.119,0.258-0.273,0.341-0.464s0.125-0.419,0.125-0.686v-0.55
		c-0.174,0.316-0.422,0.556-0.747,0.718C212.049,69.985,211.699,70.066,211.324,70.066z M211.919,68.696
		c0.267,0,0.505-0.073,0.714-0.221s0.371-0.336,0.487-0.566v-1.187c-0.116-0.303-0.292-0.542-0.53-0.718s-0.49-0.265-0.758-0.265
		c-0.188,0-0.358,0.042-0.514,0.124c-0.155,0.083-0.288,0.194-0.4,0.335c-0.111,0.14-0.198,0.302-0.259,0.485
		c-0.062,0.184-0.093,0.372-0.093,0.566c0,0.209,0.034,0.4,0.104,0.577c0.068,0.176,0.164,0.329,0.286,0.458
		c0.123,0.13,0.266,0.23,0.428,0.303C211.546,68.66,211.725,68.696,211.919,68.696z"/>
	<path fill="#30C1DC" d="M221.514,70.045h-1.73v-3.183c0-0.366-0.072-0.637-0.217-0.809c-0.145-0.173-0.343-0.259-0.595-0.259
		c-0.101,0-0.211,0.023-0.33,0.069c-0.119,0.047-0.234,0.115-0.346,0.205c-0.112,0.09-0.215,0.196-0.309,0.318
		s-0.166,0.259-0.217,0.41v3.247h-1.73V62.17h1.73v3.161c0.21-0.339,0.485-0.6,0.828-0.782c0.342-0.184,0.719-0.275,1.13-0.275
		c0.383,0,0.69,0.066,0.925,0.199c0.234,0.134,0.415,0.303,0.541,0.508c0.126,0.204,0.211,0.435,0.255,0.689
		c0.043,0.256,0.064,0.506,0.064,0.75V70.045z"/>
	<path fill="#30C1DC" d="M230.871,63.938h-2.337v6.106h-1.773v-6.106h-2.348v-1.553h6.458V63.938z"/>
	<path fill="#30C1DC" d="M233.077,70.152c-0.476,0-0.902-0.077-1.281-0.231s-0.699-0.365-0.963-0.631
		c-0.264-0.267-0.464-0.573-0.601-0.923c-0.137-0.349-0.205-0.714-0.205-1.095c0-0.41,0.068-0.797,0.205-1.16
		c0.137-0.362,0.336-0.681,0.596-0.954c0.259-0.273,0.578-0.489,0.957-0.647c0.378-0.158,0.81-0.237,1.292-0.237
		c0.483,0,0.913,0.079,1.288,0.237c0.374,0.158,0.691,0.372,0.951,0.642s0.456,0.581,0.59,0.934s0.2,0.723,0.2,1.111
		c0,0.101-0.004,0.199-0.011,0.296c-0.008,0.098-0.019,0.182-0.032,0.254h-4.197c0.028,0.381,0.168,0.671,0.416,0.868
		c0.249,0.198,0.532,0.297,0.85,0.297c0.252,0,0.495-0.061,0.73-0.184c0.233-0.122,0.391-0.287,0.47-0.496l1.472,0.41
		c-0.224,0.446-0.57,0.809-1.039,1.09C234.296,70.013,233.733,70.152,233.077,70.152z M234.278,66.679
		c-0.036-0.359-0.166-0.644-0.39-0.852c-0.224-0.209-0.501-0.313-0.833-0.313c-0.339,0-0.618,0.106-0.838,0.318
		c-0.22,0.213-0.348,0.495-0.384,0.847H234.278z"/>
	<path fill="#30C1DC" d="M236.561,67.208c0-0.389,0.068-0.761,0.205-1.117c0.137-0.355,0.336-0.669,0.596-0.938
		c0.259-0.27,0.578-0.483,0.957-0.642c0.378-0.158,0.81-0.237,1.292-0.237c0.656,0,1.208,0.139,1.655,0.415
		c0.447,0.277,0.782,0.639,1.006,1.084l-1.688,0.508c-0.224-0.36-0.552-0.54-0.984-0.54c-0.36,0-0.661,0.134-0.903,0.399
		c-0.241,0.267-0.362,0.622-0.362,1.068c0,0.223,0.033,0.426,0.098,0.609c0.065,0.184,0.155,0.34,0.271,0.469
		c0.115,0.13,0.251,0.23,0.405,0.303c0.155,0.071,0.319,0.107,0.492,0.107c0.217,0,0.415-0.052,0.596-0.156
		c0.18-0.104,0.313-0.239,0.399-0.404l1.688,0.518c-0.209,0.438-0.542,0.798-1,1.079c-0.458,0.28-1.016,0.42-1.672,0.42
		c-0.476,0-0.902-0.08-1.281-0.242s-0.699-0.378-0.963-0.647s-0.464-0.582-0.601-0.938S236.561,67.596,236.561,67.208z"/>
	<path fill="#30C1DC" d="M248.534,70.045h-1.73v-3.183c0-0.366-0.072-0.637-0.217-0.809c-0.145-0.173-0.343-0.259-0.595-0.259
		c-0.101,0-0.211,0.023-0.33,0.069c-0.119,0.047-0.234,0.115-0.346,0.205c-0.112,0.09-0.215,0.196-0.309,0.318
		s-0.166,0.259-0.217,0.41v3.247h-1.73V62.17h1.73v3.161c0.21-0.339,0.485-0.6,0.828-0.782c0.342-0.184,0.719-0.275,1.13-0.275
		c0.383,0,0.69,0.066,0.925,0.199c0.234,0.134,0.415,0.303,0.541,0.508c0.126,0.204,0.211,0.435,0.255,0.689
		c0.043,0.256,0.064,0.506,0.064,0.75V70.045z"/>
	<path fill="#30C1DC" d="M255.154,70.045h-1.73v-3.183c0-0.374-0.07-0.646-0.211-0.814s-0.326-0.253-0.558-0.253
		c-0.122,0-0.245,0.024-0.367,0.075c-0.123,0.05-0.242,0.12-0.357,0.21s-0.218,0.196-0.309,0.318
		c-0.09,0.122-0.16,0.256-0.211,0.399v3.247h-1.73v-5.664h1.558v0.95c0.209-0.339,0.505-0.6,0.888-0.782
		c0.382-0.184,0.821-0.275,1.319-0.275c0.368,0,0.663,0.066,0.887,0.199c0.224,0.134,0.396,0.306,0.52,0.519
		c0.122,0.212,0.203,0.443,0.243,0.695s0.06,0.496,0.06,0.733V70.045z"/>
	<path fill="#30C1DC" d="M259.005,70.152c-0.482,0-0.914-0.079-1.292-0.237c-0.379-0.157-0.698-0.372-0.958-0.642
		c-0.259-0.27-0.456-0.582-0.589-0.938c-0.134-0.355-0.2-0.729-0.2-1.116c0-0.389,0.066-0.761,0.2-1.117
		c0.133-0.355,0.33-0.669,0.589-0.938c0.26-0.27,0.579-0.485,0.958-0.647c0.378-0.161,0.81-0.242,1.292-0.242
		c0.483,0,0.912,0.081,1.288,0.242c0.374,0.162,0.691,0.378,0.951,0.647s0.458,0.583,0.595,0.938
		c0.138,0.356,0.206,0.729,0.206,1.117c0,0.388-0.066,0.761-0.2,1.116c-0.134,0.356-0.33,0.669-0.59,0.938s-0.578,0.484-0.957,0.642
		C259.919,70.073,259.488,70.152,259.005,70.152z M257.739,67.219c0,0.445,0.119,0.804,0.357,1.073s0.541,0.404,0.908,0.404
		c0.181,0,0.347-0.036,0.498-0.107c0.151-0.072,0.283-0.173,0.395-0.303c0.112-0.129,0.2-0.285,0.266-0.469
		c0.064-0.184,0.097-0.383,0.097-0.599c0-0.446-0.119-0.804-0.356-1.073c-0.238-0.271-0.537-0.405-0.898-0.405
		c-0.18,0-0.348,0.036-0.503,0.108c-0.155,0.071-0.288,0.173-0.4,0.302c-0.111,0.13-0.199,0.286-0.265,0.47
		C257.772,66.803,257.739,67.003,257.739,67.219z"/>
	<path fill="#30C1DC" d="M262.878,62.17h1.73v5.857c0,0.432,0.185,0.647,0.552,0.647c0.087,0,0.183-0.013,0.287-0.038
		c0.104-0.024,0.2-0.063,0.286-0.113l0.228,1.295c-0.217,0.101-0.465,0.18-0.746,0.237s-0.545,0.086-0.79,0.086
		c-0.497,0-0.88-0.129-1.146-0.388s-0.4-0.633-0.4-1.122V62.17z"/>
	<path fill="#30C1DC" d="M269.227,70.152c-0.482,0-0.914-0.079-1.292-0.237c-0.379-0.157-0.698-0.372-0.958-0.642
		c-0.259-0.27-0.456-0.582-0.589-0.938c-0.134-0.355-0.2-0.729-0.2-1.116c0-0.389,0.066-0.761,0.2-1.117
		c0.133-0.355,0.33-0.669,0.589-0.938c0.26-0.27,0.579-0.485,0.958-0.647c0.378-0.161,0.81-0.242,1.292-0.242
		c0.483,0,0.912,0.081,1.288,0.242c0.374,0.162,0.691,0.378,0.951,0.647s0.458,0.583,0.595,0.938
		c0.138,0.356,0.206,0.729,0.206,1.117c0,0.388-0.066,0.761-0.2,1.116c-0.134,0.356-0.33,0.669-0.59,0.938s-0.578,0.484-0.957,0.642
		C270.141,70.073,269.71,70.152,269.227,70.152z M267.961,67.219c0,0.445,0.119,0.804,0.357,1.073s0.541,0.404,0.908,0.404
		c0.181,0,0.347-0.036,0.498-0.107c0.151-0.072,0.283-0.173,0.395-0.303c0.112-0.129,0.2-0.285,0.266-0.469
		c0.064-0.184,0.097-0.383,0.097-0.599c0-0.446-0.119-0.804-0.356-1.073c-0.238-0.271-0.537-0.405-0.898-0.405
		c-0.18,0-0.348,0.036-0.503,0.108c-0.155,0.071-0.288,0.173-0.4,0.302c-0.111,0.13-0.199,0.286-0.265,0.47
		C267.994,66.803,267.961,67.003,267.961,67.219z"/>
	<path fill="#30C1DC" d="M275.328,70.066c-0.375,0-0.718-0.075-1.027-0.227c-0.311-0.151-0.575-0.355-0.796-0.615
		c-0.22-0.259-0.391-0.561-0.514-0.905c-0.122-0.346-0.184-0.716-0.184-1.111c0-0.417,0.064-0.804,0.194-1.16
		c0.13-0.355,0.311-0.665,0.541-0.928s0.509-0.469,0.833-0.62s0.682-0.227,1.071-0.227c0.433,0,0.81,0.092,1.13,0.275
		c0.321,0.183,0.579,0.437,0.773,0.76v-0.928h1.504v5.275c0,0.432-0.081,0.82-0.243,1.165c-0.163,0.346-0.388,0.639-0.677,0.88
		c-0.288,0.24-0.635,0.426-1.038,0.556c-0.404,0.129-0.848,0.193-1.33,0.193c-0.613,0-1.137-0.097-1.569-0.291
		s-0.811-0.475-1.136-0.841l0.931-0.939c0.209,0.237,0.469,0.427,0.778,0.566c0.311,0.141,0.643,0.211,0.996,0.211
		c0.209,0,0.407-0.029,0.595-0.087s0.353-0.146,0.497-0.264c0.145-0.119,0.258-0.273,0.341-0.464s0.125-0.419,0.125-0.686v-0.55
		c-0.174,0.316-0.422,0.556-0.747,0.718C276.053,69.985,275.703,70.066,275.328,70.066z M275.923,68.696
		c0.267,0,0.505-0.073,0.714-0.221s0.371-0.336,0.487-0.566v-1.187c-0.116-0.303-0.292-0.542-0.53-0.718s-0.49-0.265-0.758-0.265
		c-0.188,0-0.358,0.042-0.514,0.124c-0.155,0.083-0.288,0.194-0.4,0.335c-0.111,0.14-0.198,0.302-0.259,0.485
		c-0.062,0.184-0.093,0.372-0.093,0.566c0,0.209,0.034,0.4,0.104,0.577c0.068,0.176,0.164,0.329,0.286,0.458
		c0.123,0.13,0.266,0.23,0.428,0.303C275.55,68.66,275.729,68.696,275.923,68.696z"/>
	<path fill="#30C1DC" d="M280.088,70.897c0.144,0.05,0.279,0.086,0.405,0.107s0.239,0.032,0.341,0.032
		c0.209,0,0.371-0.071,0.486-0.216c0.115-0.144,0.22-0.402,0.313-0.776l-2.163-5.664h1.785l1.319,4.187l1.136-4.187h1.623
		l-2.164,6.581c-0.151,0.468-0.422,0.847-0.811,1.138c-0.39,0.292-0.852,0.438-1.385,0.438c-0.145,0-0.291-0.013-0.438-0.038
		s-0.297-0.066-0.448-0.124V70.897z"/>
</g>
<g>
	<path fill="#30C1DC" d="M77.445,44.921c-0.017,0.291-0.137,0.565-0.344,0.769c-0.207,0.211-0.48,0.331-0.772,0.342
		c-2.925,0.134-5.894,0.202-8.819,0.202c-2.928,0-5.894-0.068-8.82-0.202c-0.289-0.011-0.564-0.131-0.772-0.342
		c-0.206-0.203-0.328-0.478-0.342-0.769l0.003-17.27h-2.434v17.393c0.094,1.851,1.58,3.326,3.435,3.411
		c2.979,0.133,5.954,0.205,8.931,0.205c2.978,0,5.954-0.072,8.933-0.205c1.854-0.085,3.341-1.561,3.433-3.411l0.003-17.393h-2.432
		L77.445,44.921L77.445,44.921z"/>
	<polygon fill="#30C1DC" points="106.401,46.042 105.588,46.042 88.816,27.842 84.503,27.842 84.503,48.471 86.938,48.471 
		86.938,30.271 87.628,30.271 104.521,48.471 108.834,48.471 108.834,27.842 106.401,27.842 	"/>
	<path fill="#30C1DC" d="M134.806,27.667c-2.977-0.137-5.954-0.205-8.934-0.205c-2.976,0-5.953,0.066-8.929,0.205
		c-1.857,0.082-3.343,1.562-3.438,3.411c-0.233,4.72-0.233,9.437,0,14.153c0.096,1.85,1.581,3.328,3.436,3.412
		c2.978,0.135,5.955,0.205,8.931,0.205c2.979,0,5.957-0.07,8.934-0.205c1.854-0.084,3.339-1.563,3.434-3.412
		c0.236-4.717,0.236-9.434,0-14.153C138.146,29.229,136.66,27.75,134.806,27.667z M135.81,45.11
		c-0.017,0.292-0.138,0.564-0.345,0.771c-0.206,0.205-0.479,0.325-0.771,0.338c-2.928,0.139-5.896,0.203-8.821,0.203
		s-5.893-0.064-8.818-0.203c-0.292-0.013-0.564-0.133-0.773-0.338c-0.206-0.207-0.327-0.479-0.341-0.771
		c-0.231-4.612-0.231-9.291,0-13.908c0.014-0.288,0.135-0.567,0.341-0.771c0.209-0.203,0.481-0.324,0.773-0.34
		c2.926-0.132,5.894-0.2,8.818-0.2c2.926,0,5.895,0.068,8.821,0.2c0.291,0.016,0.565,0.137,0.771,0.34
		c0.207,0.204,0.328,0.483,0.345,0.771C136.04,35.819,136.04,40.497,135.81,45.11z"/>
	<path fill="#30C1DC" d="M165.214,36.121c0.211-0.432,0.345-0.906,0.369-1.413l-0.003-3.442c-0.084-1.849-1.566-3.332-3.419-3.424
		h-19.385v20.629h20.909c1.852-0.094,3.336-1.576,3.422-3.427v-5.938C167.041,37.813,166.293,36.702,165.214,36.121z
		 M145.213,30.264h16.824c0.29,0.016,0.566,0.14,0.771,0.344c0.207,0.209,0.326,0.48,0.34,0.771l0.004,3.208
		c-0.018,0.296-0.139,0.564-0.344,0.772c-0.209,0.205-0.481,0.324-0.767,0.339h-16.83L145.213,30.264L145.213,30.264z
		 M164.675,44.935c-0.013,0.29-0.134,0.561-0.339,0.768c-0.208,0.207-0.482,0.329-0.771,0.345h-18.352v-7.889l18.35-0.036
		c0.291,0.01,0.563,0.131,0.772,0.335c0.206,0.208,0.327,0.484,0.343,0.771L164.675,44.935z"/>
	<rect x="171.162" y="27.842" fill="#30C1DC" width="2.434" height="20.629"/>
	<polygon fill="#30C1DC" points="189.464,30.271 197.975,30.271 197.975,48.471 200.406,48.471 200.406,30.271 208.921,30.271 
		208.921,27.842 189.464,27.842 	"/>
	<polygon fill="#30C1DC" points="211.725,48.471 231.186,48.471 231.186,46.042 214.159,46.042 214.159,39.371 231.186,39.371 
		231.186,36.942 214.159,36.942 214.159,30.271 231.186,30.271 231.186,27.842 211.725,27.842 	"/>
	<path fill="#30C1DC" d="M237.889,30.43c0.207-0.203,0.479-0.324,0.771-0.34c2.925-0.132,5.895-0.2,8.818-0.2
		c2.926,0,5.895,0.068,8.818,0.2c0.291,0.016,0.564,0.137,0.773,0.34c0.207,0.204,0.326,0.483,0.345,0.771
		c0.028,0.599,0.056,1.196,0.078,1.797h2.434c-0.022-0.639-0.05-1.276-0.083-1.919c-0.097-1.85-1.576-3.329-3.431-3.411
		c-2.979-0.139-5.957-0.205-8.935-0.205s-5.953,0.066-8.931,0.205c-1.854,0.082-3.344,1.562-3.438,3.411
		c-0.235,4.72-0.235,9.437,0,14.153c0.095,1.85,1.58,3.328,3.438,3.412c2.978,0.135,5.953,0.205,8.931,0.205s5.953-0.07,8.935-0.205
		c1.854-0.084,3.334-1.563,3.431-3.412c0.033-0.64,0.061-1.275,0.083-1.916h-2.434c-0.022,0.599-0.05,1.197-0.078,1.793
		c-0.019,0.292-0.138,0.564-0.345,0.771c-0.209,0.205-0.482,0.325-0.773,0.338c-2.925,0.139-5.895,0.203-8.818,0.203
		c-2.926,0-5.895-0.064-8.818-0.203c-0.293-0.013-0.564-0.133-0.771-0.338c-0.209-0.207-0.33-0.479-0.347-0.771
		c-0.229-4.612-0.229-9.291,0-13.908C237.559,30.913,237.68,30.634,237.889,30.43z"/>
	<polygon fill="#30C1DC" points="285.566,27.842 285.566,36.942 266.105,36.942 266.105,27.842 263.669,27.842 263.669,48.471 
		266.105,48.471 266.105,39.371 285.566,39.371 285.566,48.471 288,48.471 288,27.842 	"/>
</g>
</svg>
